<?xml version="1.0" encoding="utf-8"?>
<svg width="24px" height="16px" viewBox="0 0 24 16" version="1.1" xmlns:xlink="http://www.w3.org/1999/xlink" xmlns="http://www.w3.org/2000/svg">
  <desc>Created with Lunacy</desc>
  <g id="iconfinder_compare2_1545698">
    <path d="M4.65391 0L0 7.11652C0 7.11652 1.12696 8.78609 4.63304 8.78609" transform="translate(0.1043478 2.796522)" id="XMLID_7_" fill="none" stroke="#F4F4F4" stroke-width="1" />
    <path d="M0 9.8087C3.52696 9.8087 4.63304 8.13913 4.63304 8.13913L0 1.02261L0 0L7.24174 0L14.4835 0L14.4835 1.02261L19.1165 8.13913C19.1165 8.13913 17.9896 9.8087 14.4835 9.8087" transform="translate(4.758261 1.773913)" id="XMLID_6_" fill="none" stroke="#F4F4F4" stroke-width="1" />
    <path d="M4.63304 0L0 7.11652C0 7.11652 1.12696 8.78609 4.63304 8.78609" transform="translate(14.6087 2.796522)" id="XMLID_11_" fill="none" stroke="#F4F4F4" stroke-width="1" />
    <path d="M0.104348 15.7774L0.104348 0" transform="translate(11.89565 0)" id="XMLID_9_" fill="none" stroke="#F4F4F4" stroke-width="1" />
    <path d="M10.5391 0.104348L0 0.104348" transform="translate(6.72 15.67304)" id="XMLID_10_" fill="none" stroke="#F4F4F4" stroke-width="1" />
    <path d="M0 0L9.28696 0C9.28696 0 4.63304 3.44348 0 0Z" transform="translate(0.1043478 9.913043)" id="XMLID_8_" fill="#F4F4F4" stroke="none" />
    <path d="M0 0L9.28696 0C9.28696 0 4.63304 3.44348 0 0Z" transform="translate(14.6087 9.913043)" id="XMLID_13_" fill="#F4F4F4" stroke="none" />
  </g>
</svg>