<svg height="512pt" viewBox="0 -67 512 512" width="512pt" xmlns="http://www.w3.org/2000/svg"><path d="m506.796875 212.113281-40.320313-14.507812c-29.667968-10.679688-49.601562-39.039063-49.601562-70.570313v-41.820312h-137.140625l28.191406 59.351562c3.554688 7.480469.371094 16.429688-7.113281 19.984375-2.078125.984375-4.269531 1.453125-6.425781 1.453125-5.613281 0-10.992188-3.164062-13.5625-8.566406l-24.625-51.847656-25.339844 51.984375c-3.632813 7.445312-12.613281 10.535156-20.058594 6.910156-7.445312-3.632813-10.539062-12.613281-6.910156-20.058594l28.867187-59.210937h-137.632812v41.820312c0 31.53125-19.933594 59.890625-49.601562 70.566406l-40.320313 14.511719c-1.675781.605469-3.390625.890625-5.078125.890625-.0390625 0-.0820312-.003906-.125-.007812v145.003906c0 11.046875 8.953125 20 20 20h157.902344c7.367187 0 14.136718-4.050781 17.621094-10.539062l60.476562-112.644532 60.476562 112.644532c3.488282 6.488281 10.257813 10.539062 17.621094 10.539062h157.902344c11.046875 0 20-8.953125 20-20v-145c-.042969 0-.082031.003906-.125.003906-1.6875 0-3.402344-.285156-5.078125-.890625zm0 0"/><path d="m65.125 127.035156v-41.820312h-64.125v-30h510v30h-64.125v41.820312c0 18.917969 11.960938 35.933594 29.761719 42.339844l35.363281 12.726562v-162.101562c0-11.046875-8.953125-20-20-20h-472c-11.046875 0-20 8.953125-20 20v162.101562l35.363281-12.726562c17.800781-6.40625 29.761719-23.421875 29.761719-42.339844zm0 0"/></svg>