<svg height="448pt" viewBox="0 0 448.001 448" width="448pt" xmlns="http://www.w3.org/2000/svg"><path d="m216 448v-372.6875l-18.34375 18.34375c-2.992188 2.996094-7.800781 3.136719-10.96875.328125l-69.726562-61.984375h-2.398438c-.785156-.011719-1.566406.105469-2.3125.34375l-102.648438 33.257812c-5.875 2.480469-9.6679682 8.261719-9.601562 14.640626v271.757812h64v-200h16v296zm0 0"/><path d="m384 368h64v16h-64zm0 0"/><path d="m448 80.242188c.027344-6.539063-3.96875-12.417969-10.054688-14.800782l-102.015624-33.03125c-.800782-.28125-1.640626-.417968-2.488282-.410156h-2.402344l-69.726562 61.984375c-3.167969 2.808594-7.972656 2.667969-10.96875-.328125l-18.34375-18.34375v372.6875h136v-296h16v200h64zm-184 351.757812h-16v-16h16zm0-48h-16v-16h16zm0-48h-16v-16h16zm0-48h-16v-16h16zm0-48h-16v-16h16zm0-48h-16v-16h16zm0-48h-16v-16h16zm0 0"/><path d="m281.191406 0h-114.382812l57.191406 45.753906zm0 0"/><path d="m317.175781 22.914062-14.621093-19.511718-66.578126 53.261718 20.34375 20.34375zm0 0"/><path d="m0 368h64v16h-64zm0 0"/><path d="m212.023438 56.664062-66.574219-53.261718-14.625 19.511718 60.855469 54.09375zm0 0"/></svg>