<?xml version="1.0" encoding="utf-8"?>
<svg width="32px" height="32px" viewBox="0 0 32 32" version="1.1" xmlns:xlink="http://www.w3.org/1999/xlink" xmlns="http://www.w3.org/2000/svg">
  <desc>Created with Lunacy</desc>
  <defs>
    <path d="M22.8791 14.64C22.9324 14.2133 22.9724 13.7867 22.9724 13.3333C22.9724 12.88 22.9324 12.4533 22.8791 12.0267L25.6924 9.82667C25.9458 9.62667 26.0124 9.26667 25.8524 8.97333L23.1858 4.36C23.0258 4.06667 22.6658 3.96 22.3724 4.06667L19.0524 5.4C18.3591 4.86667 17.6124 4.42667 16.7991 4.09333L16.2924 0.56C16.2524 0.24 15.9724 0 15.6391 0L10.3058 0C9.97244 0 9.69244 0.24 9.65244 0.56L9.14578 4.09333C8.33244 4.42667 7.58578 4.88 6.89244 5.4L3.57244 4.06667C3.26578 3.94667 2.91911 4.06667 2.75911 4.36L0.0924421 8.97333C-0.0808912 9.26667 -0.000891195 9.62667 0.252442 9.82667L3.06578 12.0267C3.01244 12.4533 2.97244 12.8933 2.97244 13.3333C2.97244 13.7733 3.01244 14.2133 3.06578 14.64L0.252442 16.84C-0.000891195 17.04 -0.0675579 17.4 0.0924421 17.6933L2.75911 22.3067C2.91911 22.6 3.27911 22.7067 3.57244 22.6L6.89244 21.2667C7.58578 21.8 8.33244 22.24 9.14578 22.5733L9.65244 26.1067C9.69244 26.4267 9.97244 26.6667 10.3058 26.6667L15.6391 26.6667C15.9724 26.6667 16.2524 26.4267 16.2924 26.1067L16.7991 22.5733C17.6124 22.24 18.3591 21.7867 19.0524 21.2667L22.3724 22.6C22.6791 22.72 23.0258 22.6 23.1858 22.3067L25.8524 17.6933C26.0124 17.4 25.9458 17.04 25.6924 16.84L22.8791 14.64L22.8791 14.64ZM12.9724 18C10.3991 18 8.30578 15.9067 8.30578 13.3333C8.30578 10.76 10.3991 8.66667 12.9724 8.66667C15.5458 8.66667 17.6391 10.76 17.6391 13.3333C17.6391 15.9067 15.5458 18 12.9724 18L12.9724 18Z" transform="translate(3.027558 2.666667)" id="path_1" />
    <path d="M0 0L66.6667 0L66.6667 66.6667L0 66.6667L0 0Z" id="path_2" />
    <clipPath id="mask_1">
      <use xlink:href="#path_1" />
    </clipPath>
    <clipPath id="mask_2">
      <use xlink:href="#path_2" />
    </clipPath>
  </defs>
  <g id="ic_settings">
    <path d="M22.8791 14.64C22.9324 14.2133 22.9724 13.7867 22.9724 13.3333C22.9724 12.88 22.9324 12.4533 22.8791 12.0267L25.6924 9.82667C25.9458 9.62667 26.0124 9.26667 25.8524 8.97333L23.1858 4.36C23.0258 4.06667 22.6658 3.96 22.3724 4.06667L19.0524 5.4C18.3591 4.86667 17.6124 4.42667 16.7991 4.09333L16.2924 0.56C16.2524 0.24 15.9724 0 15.6391 0L10.3058 0C9.97244 0 9.69244 0.24 9.65244 0.56L9.14578 4.09333C8.33244 4.42667 7.58578 4.88 6.89244 5.4L3.57244 4.06667C3.26578 3.94667 2.91911 4.06667 2.75911 4.36L0.0924421 8.97333C-0.0808912 9.26667 -0.000891195 9.62667 0.252442 9.82667L3.06578 12.0267C3.01244 12.4533 2.97244 12.8933 2.97244 13.3333C2.97244 13.7733 3.01244 14.2133 3.06578 14.64L0.252442 16.84C-0.000891195 17.04 -0.0675579 17.4 0.0924421 17.6933L2.75911 22.3067C2.91911 22.6 3.27911 22.7067 3.57244 22.6L6.89244 21.2667C7.58578 21.8 8.33244 22.24 9.14578 22.5733L9.65244 26.1067C9.69244 26.4267 9.97244 26.6667 10.3058 26.6667L15.6391 26.6667C15.9724 26.6667 16.2524 26.4267 16.2924 26.1067L16.7991 22.5733C17.6124 22.24 18.3591 21.7867 19.0524 21.2667L22.3724 22.6C22.6791 22.72 23.0258 22.6 23.1858 22.3067L25.8524 17.6933C26.0124 17.4 25.9458 17.04 25.6924 16.84L22.8791 14.64L22.8791 14.64ZM12.9724 18C10.3991 18 8.30578 15.9067 8.30578 13.3333C8.30578 10.76 10.3991 8.66667 12.9724 8.66667C15.5458 8.66667 17.6391 10.76 17.6391 13.3333C17.6391 15.9067 15.5458 18 12.9724 18L12.9724 18Z" transform="translate(3.027558 2.666667)" id="Mask" fill="none" stroke="none" />
    <g clip-path="url(#mask_1)">
      <g id="Group" transform="translate(-17.33333 -17.33333)">
        <path d="M0 0L66.6667 0L66.6667 66.6667L0 66.6667L0 0Z" id="White" fill="#FFFFFF" stroke="none" />
      </g>
    </g>
  </g>
</svg>