<?xml version="1.0" encoding="UTF-8"?>
<svg width="18px" height="16px" viewBox="0 0 18 16" version="1.1" xmlns="http://www.w3.org/2000/svg" xmlns:xlink="http://www.w3.org/1999/xlink">
    <!-- Generator: Sketch 52.6 (67491) - http://www.bohemiancoding.com/sketch -->
    <title>iconfinder_18_google_translate_text_language_translation_2109159 copy</title>
    <desc>Created with Sketch.</desc>
    <g id="Ver-1.4" stroke="none" stroke-width="1" fill="none" fill-rule="evenodd">
        <g id="Dashboard" transform="translate(-1630.000000, -16.000000)">
            <g id="Group-10">
                <g id="Group-9" transform="translate(1566.000000, 16.000000)">
                    <g id="iconfinder_18_google_translate_text_language_translation_2109159-copy" transform="translate(64.000000, 0.000000)">
                        <path d="M6.4,2.56 L16.7679931,2.56 C17.4062083,2.56 17.92,3.08890353 17.92,3.74588235 L17.92,14.8141176 C17.92,15.4710965 17.4062083,16 16.7679931,16 L9.47199795,16 L6.4,2.56 Z" id="path5424" fill="#CCCCCC"></path>
                        <polygon id="path5426" fill="#929292" fill-rule="nonzero" points="11.52 14.0841618 9.44656888 16 8.96 14.08"></polygon>
                        <path d="M10.004976,5.76003213 C9.86097801,5.75840021 9.72703828,5.8190263 9.65444498,5.91869551 C9.58185167,6.01836472 9.58185167,6.14163528 9.65444498,6.24130449 C9.72703828,6.3409737 9.86097801,6.40159979 10.004976,6.39996787 L15.595024,6.39996787 C15.739022,6.40159979 15.8729617,6.3409737 15.945555,6.24130449 C16.0181483,6.14163528 16.0181483,6.01836472 15.945555,5.91869551 C15.8729617,5.8190263 15.739022,5.75840021 15.595024,5.76003213 L10.004976,5.76003213 Z" id="path5432" fill="#5F7987"></path>
                        <path d="M12.4836718,5.7611399 C12.3910051,5.76916163 12.3049233,5.81912797 12.2444021,5.90002448 C12.1838809,5.98092098 12.1538891,6.086106 12.161038,6.19239284 C12.2989837,8.68781457 13.5532197,10.9258174 15.4748556,12.1061224 C15.5854001,12.1794079 15.7219618,12.1778292 15.8311963,12.1020029 C15.9404308,12.0261767 16.0050055,11.8881345 15.9996961,11.741799 C15.9943866,11.5954635 15.9200354,11.4640543 15.8056858,11.3989029 C14.0967639,10.3492344 12.9823004,8.36142411 12.8596206,6.1422098 C12.85508,6.03395163 12.8125783,5.93239762 12.7417762,5.86063107 C12.670974,5.78886451 12.5778863,5.75298209 12.4836718,5.7611399 Z" id="path5434" fill="#5F7987" fill-rule="nonzero"></path>
                        <path d="M13.7585345,4.48048681 C13.6689847,4.47508842 13.5814074,4.51476379 13.515117,4.59076287 C13.4488266,4.66676196 13.4092684,4.77284192 13.4051667,4.88560775 C13.2998665,6.99519471 12.4221919,8.92236675 11.0291757,10.1019436 C10.874457,10.2330737 10.8334443,10.4972922 10.9375669,10.6921209 C11.0416895,10.8869495 11.2515261,10.9386253 11.4062729,10.8075477 C12.9729284,9.48091683 13.960514,7.31123325 14.0789378,4.93873418 C14.086178,4.82403807 14.0561804,4.71054587 13.9957985,4.62418644 C13.9354166,4.53782702 13.8498092,4.48597865 13.7585345,4.48048681 Z" id="path5436" fill="#5F7987" fill-rule="nonzero"></path>
                        <path d="M12.4750022,3.84003901 C12.3901438,3.84135624 12.309287,3.87616648 12.2502197,3.93681165 C12.1911524,3.99745682 12.1587134,4.07896903 12.1600391,4.16341601 L12.1600391,5.43705524 C12.1584072,5.55188526 12.219032,5.65869438 12.318699,5.7165833 C12.4183661,5.77447223 12.5416339,5.77447223 12.641301,5.7165833 C12.740968,5.65869438 12.8015928,5.55188526 12.7999609,5.43705524 L12.7999609,4.16341601 C12.8013137,4.07724433 12.7675114,3.99420665 12.706274,3.93326724 C12.6450365,3.87232783 12.5615936,3.83869108 12.4750022,3.84003901 Z" id="path5438" fill="#5F7987"></path>
                        <path d="M11.52,13.44 L1.15200691,13.44 C0.513791657,13.44 0,12.9110965 0,12.2541176 L0,1.18588235 C0,0.528903529 0.513791657,0 1.15200691,0 L8.44800205,0 L11.52,13.44 Z" id="path5440" fill="#F4F4F4"></path>
                        <path d="M2.66914701,2.66863138 C1.85096434,3.48642256 1.68385747,4.75811559 2.2624028,5.75977115 C2.84093106,6.7614267 4.02537641,7.25227206 5.14296706,6.95296987 C6.26056625,6.65358236 7.03999146,5.63665454 7.04,4.47997273 L7.04,4.05337326 L4.47949843,4.05337326 L4.47949843,4.9065722 L6.04147267,4.9065722 C5.88235457,5.47685038 5.51610042,5.96871957 4.92125323,6.12809713 C4.17278448,6.32851356 3.38830655,6.00395668 3.00087706,5.33317167 C2.61344757,4.66238667 2.72471843,3.81951143 3.27259748,3.27184303 C3.82052775,2.72408931 4.66195977,2.61462388 5.33299896,3.00189088 L5.75974922,2.26199676 C5.25874441,1.97284764 4.69142261,1.87029312 4.14610406,1.94204716 C3.6007855,2.01371587 3.07822127,2.25969312 2.66914701,2.66863138 Z" id="path5444" fill="#1B1B1B" fill-rule="nonzero"></path>
                    </g>
                </g>
            </g>
        </g>
    </g>
</svg>