<?xml version="1.0" encoding="UTF-8"?>
<svg width="32px" height="30px" viewBox="0 0 32 30" version="1.1" xmlns="http://www.w3.org/2000/svg" xmlns:xlink="http://www.w3.org/1999/xlink">
    <!-- Generator: Sketch 52.6 (67491) - http://www.bohemiancoding.com/sketch -->
    <title>Group 4</title>
    <desc>Created with Sketch.</desc>
    <g id="Ver-1.4" stroke="none" stroke-width="1" fill="none" fill-rule="evenodd">
        <g id="Hamburger" transform="translate(-24.000000, -213.000000)">
            <g id="Hamburger_Menu" transform="translate(0.000000, 48.000000)">
                <g id="VOS" transform="translate(0.000000, 152.000000)">
                    <g id="Group-4" transform="translate(24.000000, 13.000000)">
                        <path d="M26.6666667,-2.84217094e-14 L5.33333333,-2.84217094e-14 C2.4,-2.84217094e-14 0,2.4 0,5.33333333 L0,18.6666667 C0,21.6 2.4,24 5.33333333,24 L5.33333333,28 C5.33333333,29.2 6.8,29.7333333 7.6,28.9333333 L12.5333333,24 L26.6666667,24 C29.6,24 32,21.6 32,18.6666667 L32,5.33333333 C32,2.4 29.6,-2.84217094e-14 26.6666667,-2.84217094e-14 Z" id="message-copy" fill="#F4F4F4"></path>
                        <g id="_x31_" transform="translate(5.333333, 1.333333)">
                            <g id="Group">
                                <g transform="translate(0.000000, 2.916067)">
                                    <polygon id="Path" fill="#FFFFFF" fill-rule="nonzero" points="14.6611415 0.0362206235 6.67280576 0.0362206235 0.0294676259 6.94507434 0.0294676259 9.35996163 6.67280576 16.2685084 14.6611415 16.2685084 21.3038657 9.36034532 21.3038657 6.94507434"></polygon>
                                    <polygon id="Path" fill="#333F73" points="13.9671942 1.24500719 7.36598561 1.24500719 1.71265228 7.12510312 1.71265228 9.18047002 7.36598561 15.0604892 13.9671942 15.0604892 19.6204508 9.18047002 19.6204508 7.12510312"></polygon>
                                    <path d="M13.7079712,1.78048921 L7.62551559,1.78048921 L2.44397122,7.16876739 L2.42540048,7.18749161 L2.42540048,9.11716067 L7.62551559,14.5245468 L13.7079712,14.5245468 L18.8893621,9.13626859 L18.9077026,9.11716067 L18.9077026,7.18749161 L13.7079712,1.78048921 Z M18.7773237,9.06451799 L13.6525659,14.3946283 L7.6809976,14.3946283 L2.55539568,9.06451799 L2.55539568,7.24021103 L7.6809976,1.91010072 L13.6525659,1.91010072 L18.7773237,7.24021103 L18.7773237,9.06451799 Z" id="Shape" fill="#FFFFFF" fill-rule="nonzero"></path>
                                </g>
                                <g transform="translate(0.383693, 0.000000)" fill="#FFFFFF" fill-rule="nonzero">
                                    <rect id="Rectangle" x="1.41997122" y="0.53740048" width="17.4061583" height="1"></rect>
                                    <g transform="translate(18.110312, 0.000000)" id="Path">
                                        <path d="M1.13381295,1.25866667 C0.775904077,1.394494 0.691568345,1.02522782 0.691568345,0.737611511 C0.691568345,0.448383693 0.771990408,0.0908585132 1.13381295,0.214561151 C1.59946283,0.373410072 1.98515108,0.691491607 1.98515108,0.737611511 C1.98515108,0.782503597 1.55380336,1.09981775 1.13381295,1.25866667 Z"></path>
                                        <path d="M0.722877698,0.641151079 C0.614369305,0.798465228 0.230292566,0.704383693 0.133832134,0.370340528 C0.0359136691,0.0287769784 0.490973621,0.00107434053 0.521438849,0.259069544 C0.559347722,0.574081535 0.673304556,0.623654676 0.71505036,0.631021583 C0.664709832,0.558043165 0.617055156,0.436642686 0.592038369,0.232134293 C0.551059952,-0.115645084 -0.0652278177,-0.0785803357 0.0678369305,0.384 C0.201285372,0.845736211 0.743136691,0.969899281 0.876968825,0.739146283 C0.877045564,0.739146283 0.799386091,0.743827338 0.722877698,0.641151079 Z"></path>
                                        <path d="M0.722877698,0.819568345 C0.614369305,0.663405276 0.230292566,0.757103118 0.133832134,1.09122302 C0.0359136691,1.43278657 0.490973621,1.46041247 0.521438849,1.2028777 C0.559347722,0.8882494 0.673304556,0.837908873 0.71505036,0.830925659 C0.664709832,0.903520384 0.617055156,1.02492086 0.592038369,1.22904556 C0.551059952,1.57720863 -0.0652278177,1.53976019 0.0678369305,1.07756355 C0.201285372,0.616211031 0.743136691,0.491741007 0.876968825,0.722417266 C0.877045564,0.722417266 0.799386091,0.716968825 0.722877698,0.819568345 Z"></path>
                                        <path d="M1.18031655,1.126753 C0.909429257,1.22904556 0.846196643,0.949947242 0.846196643,0.731395683 C0.846196643,0.513995204 0.90705036,0.243107914 1.18031655,0.336422062 C1.53200959,0.457438849 1.82438369,0.696709832 1.82438369,0.731395683 C1.82430695,0.765697842 1.49801439,1.0061199 1.18031655,1.126753 Z"></path>
                                    </g>
                                    <g id="Path">
                                        <path d="M0.896920863,1.25866667 C1.25467626,1.394494 1.33916547,1.02522782 1.33916547,0.737611511 C1.33916547,0.448383693 1.25951079,0.0908585132 0.896920863,0.214561151 C0.431501199,0.373410072 0.0454292566,0.691491607 0.0454292566,0.737611511 C0.0454292566,0.782503597 0.477160671,1.09981775 0.896920863,1.25866667 Z"></path>
                                        <path d="M1.30777938,0.641151079 C1.41705516,0.798465228 1.80036451,0.704383693 1.89713189,0.370340528 C1.99489688,0.0287769784 1.53983693,0.00107434053 1.50875779,0.259069544 C1.47192326,0.574081535 1.3581199,0.623654676 1.31576019,0.631021583 C1.36571703,0.558043165 1.41390887,0.436642686 1.43854197,0.232134293 C1.4797506,-0.115645084 2.09580815,-0.0785803357 1.96258993,0.384 C1.82990887,0.845736211 1.28828777,0.969899281 1.15384173,0.739146283 C1.15376499,0.739146283 1.23165468,0.743827338 1.30777938,0.641151079 Z"></path>
                                        <path d="M1.30777938,0.819568345 C1.41705516,0.663405276 1.80036451,0.757103118 1.89713189,1.09122302 C1.99489688,1.43278657 1.53983693,1.46041247 1.50875779,1.2028777 C1.47192326,0.8882494 1.3581199,0.837908873 1.31576019,0.830925659 C1.36571703,0.903520384 1.41390887,1.02492086 1.43854197,1.22904556 C1.4797506,1.57720863 2.09580815,1.53976019 1.96258993,1.07756355 C1.82990887,0.616211031 1.28828777,0.491741007 1.15384173,0.722417266 C1.15376499,0.722417266 1.23165468,0.716968825 1.30777938,0.819568345 Z"></path>
                                        <path d="M0.850263789,1.126753 C1.12115108,1.22904556 1.1849976,0.949947242 1.1849976,0.731395683 C1.1849976,0.513995204 1.12429736,0.243107914 0.850263789,0.336422062 C0.498417266,0.457438849 0.206273381,0.696709832 0.206273381,0.731395683 C0.206273381,0.765697842 0.533179856,1.0061199 0.850263789,1.126753 Z"></path>
                                    </g>
                                </g>
                                <g transform="translate(6.292566, 0.767386)" fill="#FFFFFF" fill-rule="nonzero">
                                    <g>
                                        <path d="M0.0564796163,0.678676259 C0.0564796163,1.01747722 0.332585132,1.29342926 0.671002398,1.29342926 C1.01080096,1.29342926 1.28613909,1.01747722 1.28613909,0.678676259 C1.28613909,0.3398753 1.01080096,0.0639232614 0.671002398,0.0639232614 C0.332585132,0.0639232614 0.0564796163,0.3398753 0.0564796163,0.678676259 Z M0.219625899,0.678676259 C0.219625899,0.429659472 0.422983213,0.227069544 0.671002398,0.227069544 C0.920402878,0.227069544 1.12276259,0.429659472 1.12276259,0.678676259 C1.12276259,0.927693046 0.920402878,1.13028297 0.671002398,1.13028297 C0.422983213,1.13020624 0.219625899,0.927693046 0.219625899,0.678676259 Z" id="Shape"></path>
                                        <path d="M0.795318945,2.26916067 L0.795318945,1.25628777 L0.54783693,1.25628777 L0.54783693,2.22541966 C0.623577938,2.17200959 0.745131894,2.18643645 0.795318945,2.26916067 Z" id="Path"></path>
                                    </g>
                                    <g transform="translate(7.443645, 0.000000)">
                                        <path d="M0.0178033573,0.678676259 C0.0178033573,1.01747722 0.293755396,1.29342926 0.632940048,1.29342926 C0.972585132,1.29342926 1.24769305,1.01747722 1.24769305,0.678676259 C1.24769305,0.3398753 0.972585132,0.0639232614 0.632940048,0.0639232614 C0.293755396,0.0639232614 0.0178033573,0.3398753 0.0178033573,0.678676259 Z M0.181333333,0.678676259 C0.181333333,0.429659472 0.383923261,0.227069544 0.632940048,0.227069544 C0.881573141,0.227069544 1.08454676,0.429659472 1.08454676,0.678676259 C1.08454676,0.927693046 0.881573141,1.13028297 0.632940048,1.13028297 C0.383923261,1.13020624 0.181333333,0.927693046 0.181333333,0.678676259 Z" id="Shape"></path>
                                        <path d="M0.756642686,2.25396643 L0.756642686,1.25628777 L0.509160671,1.25628777 L0.509160671,2.19188489 C0.589275779,2.14231175 0.71336211,2.16264748 0.756642686,2.25396643 Z" id="Path"></path>
                                    </g>
                                </g>
                            </g>
                            <g id="Group" transform="translate(4.297362, 9.055156)" fill="#FFFFFF" fill-rule="nonzero">
                                <path d="M1.50776019,2.92458513 C1.50776019,2.726753 1.45857074,2.56399041 1.36042206,2.4363741 C1.26227338,2.30875779 1.13151079,2.24468106 0.968364508,2.24468106 C0.924470024,2.24468106 0.875510791,2.25174101 0.821026379,2.26501679 C0.766618705,2.278753 0.735769784,2.28573621 0.728172662,2.28573621 L0.71006235,2.28113189 C0.695021583,2.27368825 0.68136211,2.25181775 0.66923741,2.21559712 C0.63447482,2.09772662 0.572623501,2.00318465 0.483453237,1.93227818 C0.193227818,1.69807194 0.0482685851,1.38658993 0.0482685851,0.998215827 C0.0482685851,0.685582734 0.150561151,0.444776978 0.355453237,0.275338129 C0.560191847,0.106359712 0.843741007,0.0216402878 1.20633094,0.0216402878 C1.36502638,0.0216402878 1.50453717,0.0517218225 1.62455635,0.112191847 C1.74472902,0.172738609 1.83727578,0.231673861 1.90227338,0.288997602 C2.04884412,0.420527578 2.12205276,0.591117506 2.12205276,0.801074341 C2.12205276,0.870522782 2.10394245,0.963453237 2.06779856,1.08017266 C2.0315012,1.19650839 2.01339089,1.26672422 2.01339089,1.29089688 C2.01339089,1.38152518 2.05106954,1.46816307 2.12673381,1.55127098 C2.09941487,1.5423693 2.06096882,1.53761151 2.01101199,1.53761151 C1.96128537,1.53761151 1.91401439,1.52510312 1.86935252,1.49931894 C1.82484412,1.47361151 1.78969784,1.4419952 1.76399041,1.40416307 C1.71426379,1.33310312 1.67719904,1.2523741 1.65294964,1.1617458 C1.64243645,1.17816787 1.60399041,1.19535731 1.53745803,1.21247002 C1.47092566,1.2301199 1.41467626,1.23863789 1.36863309,1.23863789 C1.32258993,1.23863789 1.28222542,1.23242206 1.24730935,1.21952998 C1.21254676,1.20663789 1.1873765,1.19297842 1.17141487,1.17855156 C1.15560671,1.1641247 1.14386571,1.14578417 1.13626859,1.12314628 C1.1257554,1.09736211 1.12046043,1.07472422 1.12046043,1.05523261 C1.21415827,1.05055156 1.29603837,1.02630216 1.36633094,0.98263789 C1.43654676,0.938896882 1.47169305,0.868297362 1.47169305,0.770685851 C1.47169305,0.673074341 1.44260911,0.597333333 1.38444125,0.542695444 C1.32627338,0.488441247 1.26096882,0.461122302 1.18852758,0.461122302 C0.951251799,0.461122302 0.83253717,0.603165468 0.83253717,0.887328537 C0.83253717,1.12736691 0.89377458,1.30655156 1.01617266,1.42434532 C1.07963549,1.4865036 1.14455635,1.51727578 1.21108873,1.51727578 C1.27746763,1.51727578 1.34691607,1.50714628 1.41951079,1.48681055 C1.49210552,1.46647482 1.53408153,1.45596163 1.54536211,1.45596163 C1.55671942,1.45596163 1.56915108,1.47591367 1.58265707,1.51489688 C1.62946763,1.64957314 1.68763549,1.7401247 1.75708393,1.78693525 C1.92176499,1.89582734 2.05260432,2.03556835 2.1493717,2.20615827 C2.24598561,2.37713189 2.29440767,2.5590024 2.29440767,2.75253717 C2.29440767,2.94584173 2.26041247,3.10967866 2.19234532,3.24435492 C2.12443165,3.37864748 2.03441727,3.48753957 1.92260911,3.57064748 C1.69293046,3.7416211 1.42710791,3.82672422 1.12483453,3.82672422 C0.845352518,3.82672422 0.605928058,3.75297842 0.406484412,3.60456595 C0.309717026,3.53204796 0.232441247,3.43788969 0.174043165,3.32239808 C0.1158753,3.20682974 0.0867913669,3.09717026 0.0867913669,2.99257554 C0.0867913669,2.88836451 0.106896882,2.77947242 0.146877698,2.66505516 C0.186858513,2.55109832 0.206964029,2.46284892 0.206964029,2.4 C0.206964029,2.33722782 0.181256595,2.27123261 0.129918465,2.20178417 C0.151021583,2.18651319 0.179107914,2.17914628 0.213870504,2.17914628 C0.307568345,2.17914628 0.390292566,2.2254964 0.461889688,2.31842686 C0.533717026,2.41128058 0.570398082,2.5061295 0.572009592,2.60297362 C0.671769784,2.5498705 0.758561151,2.52331894 0.83253717,2.52331894 C0.906666667,2.52331894 0.961764988,2.53076259 0.99806235,2.54518945 C1.03435971,2.55923261 1.05991367,2.57795683 1.07510791,2.60059472 C1.10066187,2.63696882 1.11355396,2.6701199 1.11355396,2.70020144 L1.11355396,2.71846523 C1.02591847,2.72905516 0.949256595,2.76573621 0.883414868,2.82820144 C0.817880096,2.89105036 0.784882494,2.97070504 0.784882494,3.06747242 C0.784882494,3.16423981 0.815884892,3.23606715 0.87781295,3.28295444 C0.939894484,3.32976499 1.01809113,3.35317026 1.11240288,3.35317026 C1.20686811,3.35317026 1.29642206,3.31572182 1.38114149,3.2407482 C1.46540048,3.16623501 1.50776019,3.0608729 1.50776019,2.92458513 Z" id="Path"></path>
                                <path d="M2.46185132,0.841976019 C2.40153477,0.826781775 2.37129976,0.776748201 2.37129976,0.692489209 C2.37129976,0.607769784 2.41365947,0.529726619 2.49814868,0.458666667 C2.46185132,0.433266187 2.43161631,0.399731415 2.40759712,0.357985612 C2.38342446,0.316546763 2.37129976,0.274494005 2.37129976,0.23228777 C2.37129976,0.18977458 2.37874341,0.155395683 2.39393765,0.129227818 C2.40897842,0.102676259 2.43161631,0.0847194245 2.46185132,0.0758177458 C2.57972182,0.14841247 2.69835971,0.184709832 2.81784173,0.184709832 C2.86465228,0.184709832 2.92773141,0.166369305 3.00692566,0.130071942 C3.08635012,0.0941582734 3.14566906,0.0758177458 3.18488249,0.0758177458 C3.28164988,0.0758177458 3.36613909,0.137899281 3.43881055,0.261601918 C3.5098705,0.137899281 3.5927482,0.0758177458 3.68805755,0.0758177458 C3.7275012,0.0758177458 3.78658993,0.0941582734 3.86601439,0.130071942 C3.94520863,0.166369305 4.00844125,0.184709832 4.05532854,0.184709832 C4.17005276,0.184709832 4.28869065,0.14841247 4.41108873,0.0758177458 C4.44876739,0.0758177458 4.47524221,0.104671463 4.49028297,0.162071942 C4.49634532,0.183098321 4.49949161,0.210877698 4.49949161,0.244796163 C4.49949161,0.278714628 4.48813429,0.314628297 4.46557314,0.35253717 C4.42927578,0.412623501 4.39742926,0.448153477 4.37034053,0.458666667 C4.40510312,0.480153477 4.43533813,0.51253717 4.46089209,0.556201439 C4.48659952,0.599942446 4.49949161,0.638541966 4.49949161,0.671769784 C4.49949161,0.704997602 4.49634532,0.732623501 4.49028297,0.754494005 C4.48422062,0.776364508 4.4776211,0.792786571 4.46994724,0.80329976 C4.4533717,0.822791367 4.43364988,0.835683453 4.41101199,0.841976019 C4.31884892,0.736153477 4.19184652,0.683127098 4.03023501,0.683127098 L3.79679616,0.692489209 C3.77860911,0.710369305 3.76947722,0.810359712 3.76947722,0.991386091 C3.76947722,1.1728729 3.77784173,1.3177554 3.79441727,1.42664748 C3.81099281,1.53553957 3.83186571,1.61596163 3.85672902,1.66783693 C3.88166906,1.72017266 3.90630216,1.76115108 3.93047482,1.79161631 C3.95464748,1.82169784 3.97498321,1.84425899 3.99155875,1.85952998 C4.00836451,1.87472422 4.01657554,1.88876739 4.01657554,1.90127578 C4.01657554,1.91416787 4.01051319,1.92744365 3.99838849,1.94110312 C3.98626379,1.95483933 3.97122302,1.96842206 3.95311271,1.98208153 C3.93492566,1.99535731 3.91482014,2.02075779 3.89302638,2.05782254 C3.87115588,2.09481055 3.85105036,2.13970264 3.83286331,2.19288249 C3.79073381,2.31658513 3.76947722,2.49692086 3.76947722,2.73342926 C3.76947722,2.96955396 3.78958273,3.14751079 3.82956355,3.26699281 C3.86954436,3.38647482 3.94098801,3.49536691 4.04381775,3.59328537 C4.04381775,3.64792326 4.00145803,3.68851799 3.91673861,3.71591367 C3.8851223,3.72481535 3.84084412,3.72957314 3.78421103,3.72957314 C3.72742446,3.72957314 3.6688729,3.70731894 3.60855635,3.66365468 C3.54808633,3.61991367 3.50434532,3.57694005 3.47702638,3.53442686 L3.43858034,3.46889209 C3.39468585,3.57778417 3.31679616,3.65544365 3.20514149,3.7022542 C3.15971223,3.72021103 3.11397602,3.72964988 3.06793285,3.72964988 C3.02188969,3.72964988 2.98244604,3.72496882 2.95006235,3.71599041 C2.91767866,3.70701199 2.89388969,3.69565468 2.87861871,3.68207194 C2.84546763,3.65160671 2.82651319,3.6223693 2.82198561,3.59343885 C2.92466187,3.49552038 2.99610552,3.3862446 3.03608633,3.2659952 C3.07629736,3.1457458 3.09617266,2.9938801 3.09617266,2.81039808 C3.09617266,2.62691607 3.08796163,2.4795012 3.07123261,2.36861391 C3.05465707,2.25734293 3.03432134,2.17692086 3.01014868,2.12704077 C2.98597602,2.07708393 2.96134293,2.03840767 2.93640288,2.01032134 C2.91161631,1.98261871 2.89074341,1.9607482 2.87416787,1.94593765 C2.85759233,1.93074341 2.84915108,1.91623981 2.84915108,1.90265707 C2.84915108,1.88938129 2.85751559,1.87495444 2.87416787,1.85968345 C2.89074341,1.84448921 2.91161631,1.82185132 2.93640288,1.79176978 C2.96141966,1.76130456 2.98597602,1.71986571 3.01014868,1.66683933 C3.06747242,1.54467146 3.0962494,1.36195683 3.0962494,1.11961631 C3.0962494,0.877199041 3.08727098,0.734695444 3.06908393,0.692642686 C3.06908393,0.686426859 3.00255156,0.683280576 2.86964029,0.683280576 C2.73657554,0.683280576 2.64602398,0.695788969 2.59760192,0.720729017 C2.54948681,0.745515588 2.50421103,0.786110312 2.46185132,0.841976019 Z" id="Path"></path>
                                <path d="M7.06486331,2.11668106 C7.03639329,2.16901679 7.01452278,2.24122782 6.99932854,2.33446523 C6.98451799,2.42739568 6.97669065,2.55854197 6.97669065,2.7287482 C6.97669065,2.898494 6.95405276,3.05933813 6.90877698,3.21035971 C6.8635012,3.36145803 6.79482014,3.48201439 6.7025036,3.57179856 C6.61041727,3.66158273 6.50091127,3.72673381 6.37390887,3.76656115 C6.24705995,3.80669544 6.09680576,3.82664748 5.92291607,3.82664748 C5.74925659,3.82664748 5.59877218,3.80669544 5.47192326,3.76656115 C5.34507434,3.72665707 5.23533813,3.66119904 5.1432518,3.57057074 C4.96038369,3.39223022 4.86906475,3.08934293 4.86906475,2.66190887 C4.86906475,2.30047002 4.78518945,2.06204317 4.61751559,1.94570743 C4.59779376,1.93204796 4.58804796,1.92222542 4.58804796,1.91600959 C4.58804796,1.91017746 4.5978705,1.90081535 4.61751559,1.88792326 C4.63700719,1.87503118 4.66041247,1.85431175 4.68780815,1.82660911 C4.71497362,1.79852278 4.74221583,1.76107434 4.76938129,1.71418705 C4.83591367,1.59946283 4.86906475,1.44092086 4.86906475,1.23840767 C4.86906475,1.03581775 4.87919424,0.873899281 4.89976019,0.752115108 C4.92009592,0.630714628 4.95148201,0.528038369 4.99376499,0.44416307 C5.03597122,0.360211031 5.08546763,0.290378897 5.14210072,0.234513189 C5.19888729,0.178340528 5.26871942,0.134983213 5.35190408,0.104134293 C5.43485851,0.0729016787 5.5214964,0.0514916067 5.61128058,0.0393669065 C5.70121823,0.0272422062 5.80581295,0.0214100719 5.92529496,0.0214100719 C6.04454676,0.0214100719 6.14891127,0.0272422062 6.23792806,0.0393669065 C6.32709832,0.0514916067 6.41335252,0.0729016787 6.49630695,0.104134293 C6.57941487,0.134983213 6.64886331,0.178263789 6.70488249,0.234513189 C6.7607482,0.290378897 6.80970743,0.359827338 6.85229736,0.442935252 C6.93540528,0.609227818 6.97676739,0.853179856 6.97676739,1.17471463 C6.97676739,1.52679137 7.05097362,1.76483453 7.19923261,1.88907434 C7.21711271,1.90235012 7.22616787,1.91209592 7.22616787,1.91716067 C7.22616787,1.92260911 7.21603837,1.9331223 7.19539568,1.94870024 C7.17505995,1.96473861 7.15556835,1.98346283 7.13684412,2.00571703 C7.117506,2.02774101 7.09371703,2.06472902 7.06486331,2.11668106 Z M5.62808633,2.6186283 L5.62808633,2.78883453 C5.62808633,2.98520863 5.63606715,3.09993285 5.6518753,3.13308393 C5.66783693,3.16661871 5.68095923,3.19432134 5.69170264,3.21695923 C5.70221583,3.23959712 5.71472422,3.25601918 5.7289976,3.26584173 C5.74342446,3.27558753 5.76038369,3.28656115 5.7798753,3.29860911 C5.8327482,3.33060911 5.90772182,3.33728537 6.00425899,3.31932854 C6.07846523,3.30566906 6.12895923,3.2693717 6.1561247,3.21043645 C6.19403357,3.13039808 6.21429257,3.0433765 6.21743885,2.9497554 C6.22035492,2.85605755 6.22196643,2.79405276 6.22196643,2.76397122 L6.22196643,2.6371223 C6.22196643,2.354494 6.1803741,2.14614868 6.09726619,2.01147242 C6.07907914,1.98139089 6.06327098,1.95952038 6.04961151,1.94701199 C6.03610552,1.93419664 6.02927578,1.92399041 6.02927578,1.91623981 C6.02927578,1.90879616 6.03940528,1.89360192 6.05989448,1.87096403 C6.08015348,1.84832614 6.1022542,1.8186283 6.12565947,1.78156355 C6.14906475,1.7444988 6.17093525,1.670753 6.19119424,1.56063309 C6.21168345,1.45020624 6.22181295,1.33540528 6.22181295,1.216 C6.22181295,1.09659472 6.22142926,1.01732374 6.22058513,0.977880096 C6.21981775,0.938820144 6.21843645,0.892009592 6.21613429,0.837371703 C6.2137554,0.783117506 6.21007194,0.742139089 6.20477698,0.715203837 C6.19955875,0.687884892 6.19196163,0.657035971 6.18213909,0.622273381 C6.17239329,0.58758753 6.16026859,0.562570743 6.14584173,0.547376499 C6.13156835,0.532105516 6.11384173,0.516911271 6.09258513,0.502100719 C6.05935731,0.474781775 6.0106283,0.461122302 5.94639808,0.461122302 C5.88216787,0.461122302 5.83305516,0.46618705 5.79905995,0.475932854 C5.76514149,0.485678657 5.73720863,0.505247002 5.71533813,0.533717026 C5.69331415,0.562570743 5.67627818,0.590733813 5.66423022,0.618743405 C5.65210552,0.646446043 5.6431271,0.692565947 5.63706475,0.755798561 C5.62939089,0.83422542 5.62578417,0.952863309 5.62578417,1.11178897 C5.62578417,1.2702542 5.63215348,1.39863789 5.64489209,1.49701679 C5.65778417,1.59539568 5.67382254,1.66760671 5.69254676,1.71441727 C5.7115012,1.76122782 5.7303789,1.7983693 5.74933333,1.82568825 C5.76805755,1.85293046 5.78409592,1.87288249 5.79698801,1.88577458 C5.80964988,1.89866667 5.81609592,1.90917986 5.81609592,1.91739089 C5.81609592,1.92552518 5.80964988,1.93726619 5.79698801,1.95246043 C5.78417266,1.96765468 5.76813429,1.99113669 5.74933333,2.022753 C5.7303789,2.0543693 5.71188489,2.09458034 5.69369784,2.14292566 C5.65011031,2.25910791 5.62808633,2.41764988 5.62808633,2.6186283 Z" id="Shape"></path>
                                <path d="M8.06008633,3.4913765 C8.05225899,3.50657074 8.0339952,3.53120384 8.00468106,3.5651223 C7.97498321,3.59904077 7.94689688,3.62643645 7.91965468,3.64784652 C7.84544844,3.70210072 7.77124221,3.7294964 7.69634532,3.7294964 C7.6213717,3.7294964 7.56443165,3.71821583 7.5253717,3.69557794 C7.48592806,3.67247962 7.46298321,3.64984173 7.45707434,3.62720384 L7.44809592,3.59328537 C7.54800959,3.50273381 7.61830216,3.39031175 7.66004796,3.25571223 C7.70179376,3.12103597 7.7221295,2.96617746 7.7221295,2.79006235 C7.7221295,2.61410072 7.71430216,2.47313189 7.69757314,2.36738609 C7.68076739,2.26156355 7.66050839,2.182753 7.63625899,2.13164508 C7.61208633,2.08007674 7.58745324,2.03955875 7.56289688,2.00909353 C7.53795683,1.97901199 7.51677698,1.95675779 7.50043165,1.94233094 C7.4836259,1.92790408 7.47541487,1.91347722 7.47541487,1.89935731 C7.47541487,1.88485372 7.4836259,1.86965947 7.50043165,1.85408153 C7.51677698,1.83804317 7.5378801,1.81502158 7.56289688,1.78463309 C7.58745324,1.75455156 7.61208633,1.71242206 7.63625899,1.65778417 C7.69365947,1.53093525 7.7221295,1.33655635 7.7221295,1.07426379 C7.7221295,0.811971223 7.70263789,0.626570743 7.66242686,0.517678657 C7.62229257,0.409170264 7.55123261,0.306110312 7.44817266,0.209726619 C7.44817266,0.155088729 7.48953477,0.115338129 7.57302638,0.0895539568 C7.6058705,0.0805755396 7.64646523,0.0758944844 7.69404317,0.0758944844 C7.7416211,0.0758944844 7.7905036,0.0837218225 7.84,0.0996834532 C7.88995683,0.115645084 7.93208633,0.134829736 7.96723261,0.157467626 C8.03668106,0.202743405 8.09254676,0.251165468 8.13505995,0.302733813 C8.14258034,0.281630695 8.16130456,0.256613909 8.19123261,0.227760192 C8.22169784,0.199213429 8.25569305,0.175040767 8.29352518,0.155165468 C8.39620144,0.102446043 8.51215348,0.075971223 8.64015348,0.075971223 C8.7689976,0.075971223 8.8649976,0.0782733813 8.9289976,0.0829544365 C8.99384173,0.0872517986 9.05745803,0.0950791367 9.12107434,0.106743405 C9.18423022,0.118023981 9.2416307,0.132911271 9.29273861,0.152019185 C9.34430695,0.170743405 9.39272902,0.19529976 9.4380048,0.225381295 C9.48328058,0.255846523 9.52195683,0.290609113 9.55357314,0.329592326 C9.62148681,0.414311751 9.66123741,0.505247002 9.67297842,0.601707434 C9.68395204,0.69847482 9.69960671,0.77076259 9.71909832,0.818340528 C9.73858993,0.865918465 9.75777458,0.900297362 9.77603837,0.92140048 C9.8259952,0.975654676 9.8506283,1.00727098 9.8506283,1.01548201 C9.8506283,1.02369305 9.84318465,1.03696882 9.82799041,1.05538609 C9.81279616,1.07326619 9.79560671,1.09590408 9.77603837,1.12329976 C9.72615827,1.19435971 9.69561631,1.2887482 9.68395204,1.40661871 C9.67297842,1.52448921 9.63476259,1.62171703 9.56961151,1.69899281 C9.50438369,1.77588489 9.42327098,1.81916547 9.32496882,1.82822062 C9.50330935,1.88715588 9.62041247,2.01323741 9.67620144,2.20646523 C9.70666667,2.31696882 9.73168345,2.4703693 9.75117506,2.66666667 C9.77066667,2.86296403 9.78939089,3.00892086 9.80773141,3.10415348 C9.84870983,3.31725659 9.94240767,3.47065707 10.0887482,3.56435492 C9.95882974,3.69588489 9.7886235,3.76141966 9.57866667,3.76141966 C9.46233094,3.76141966 9.36479616,3.72980336 9.28667626,3.66618705 C9.20786571,3.60257074 9.15084892,3.52023022 9.11539568,3.41908873 C9.07986571,3.31802398 9.05254676,3.2063693 9.03382254,3.08496882 C9.01509832,2.96318465 9.00105516,2.84101679 8.99322782,2.71884892 C8.98470983,2.59629736 8.97373621,2.48464269 8.96007674,2.38319424 C8.92684892,2.15520384 8.84964988,2.04132374 8.72894005,2.04132374 L8.42490168,2.04132374 L8.42490168,2.74386571 C8.42490168,2.96594724 8.44324221,3.13692086 8.47953957,3.25717026 C8.51591367,3.37734293 8.58183213,3.48938129 8.67706475,3.59359233 C8.67706475,3.64938129 8.63524221,3.69043645 8.55213429,3.71622062 C8.51852278,3.7251223 8.48069065,3.7298801 8.43741007,3.7298801 C8.39443645,3.7298801 8.35192326,3.72128537 8.30933333,3.70494005 C8.26720384,3.68813429 8.23167386,3.66856595 8.20320384,3.64592806 C8.1425036,3.59865707 8.09484892,3.54724221 8.06008633,3.4913765 Z M8.88057554,0.556201439 C8.83691127,0.52305036 8.78265707,0.506244604 8.71827338,0.506244604 C8.65427338,0.506244604 8.58942926,0.518369305 8.52389448,0.542541966 C8.45797602,0.566714628 8.4247482,0.592498801 8.4247482,0.619817746 L8.4247482,1.68732854 C8.60347242,1.68732854 8.73461871,1.66699281 8.81941487,1.62724221 C8.90413429,1.58695444 8.94618705,1.52264748 8.94618705,1.433247 L8.94618705,0.665093525 C8.94611031,0.62564988 8.92431655,0.589429257 8.88057554,0.556201439 Z" id="Shape"></path>
                                <path d="M11.9718369,1.67796643 C11.9718369,1.75992326 11.9191175,1.83213429 11.8134484,1.8957506 C11.8423022,1.90472902 11.8700048,1.92506475 11.89694,1.95706475 C11.9468969,2.01446523 11.9719137,2.06365468 11.9719137,2.1042494 C11.9719137,2.1783789 11.9571031,2.21974101 11.9266379,2.22910312 L11.91106,2.23340048 C11.7748489,2.14446043 11.5597506,2.09995204 11.2646906,2.09995204 L11.1651607,3.09486811 C11.1651607,3.19439808 11.1952422,3.257247 11.2560959,3.28303118 C11.3041343,3.30252278 11.3634532,3.31226859 11.4336691,3.31226859 C11.5039616,3.31226859 11.5589832,3.28502638 11.5991175,3.22954436 C11.6393285,3.17452278 11.6592038,3.10622542 11.6592038,3.02465228 C11.6592038,2.88997602 11.6057938,2.77057074 11.4980528,2.66635971 C11.5136307,2.60581295 11.5581391,2.57573141 11.6322686,2.57573141 C11.7603453,2.57573141 11.8571127,2.60811511 11.9218801,2.67334293 L11.9561823,2.70726139 C12.0436643,2.61939568 12.1435012,2.57573141 12.2552326,2.57573141 C12.2988969,2.57573141 12.3340432,2.58317506 12.3605947,2.5983693 C12.3871463,2.61356355 12.4051031,2.63620144 12.4136211,2.66635971 C12.2914532,2.7631271 12.2301391,2.91921343 12.2301391,3.13431175 C12.2301391,3.34979376 12.2988969,3.51485851 12.4361823,3.62965947 C12.4361823,3.66910312 12.4050264,3.69834053 12.3414101,3.71821583 C12.3172374,3.72565947 12.2890743,3.7294964 12.257458,3.7294964 C12.1075875,3.7294964 11.9795875,3.65766906 11.8722302,3.51401439 C11.813295,3.58507434 11.7329496,3.63848441 11.6321918,3.67485851 C11.5307434,3.71115588 11.4456403,3.7294964 11.3769592,3.7294964 C11.3082782,3.7294964 11.2536403,3.72443165 11.2138129,3.71468585 C11.1739856,3.70494005 11.1380719,3.69243165 11.107223,3.67723741 C11.0763741,3.66204317 11.0471367,3.64523741 11.0201247,3.6261295 C10.9928825,3.60740528 10.9694005,3.58906475 10.9499089,3.57064748 C10.9104652,3.53435012 10.879693,3.50119904 10.8569784,3.47111751 C10.7945899,3.57532854 10.7008921,3.65222062 10.5759616,3.70217746 C10.5291511,3.72013429 10.476048,3.72957314 10.4171894,3.72957314 C10.3581775,3.72957314 10.3090647,3.71829257 10.2700048,3.69565468 C10.2305612,3.67255635 10.2076163,3.64991847 10.2017074,3.62728058 L10.192729,3.59336211 C10.2653237,3.54969784 10.3145132,3.50902638 10.3402974,3.47242206 C10.3656211,3.43535731 10.384729,3.40642686 10.3980048,3.38616787 C10.4105132,3.36583213 10.4214868,3.33421583 10.4308489,3.29200959 C10.4398273,3.2498801 10.4464269,3.21511751 10.4511847,3.18894964 C10.455789,3.16239808 10.4589353,3.11796643 10.4613141,3.05511751 C10.4636163,2.99226859 10.4648441,2.94154436 10.4648441,2.90210072 L10.4648441,2.71163549 C10.4648441,2.32479616 10.3907146,2.06726139 10.2428393,1.93880096 C10.2260336,1.92514149 10.2178225,1.91194245 10.2178225,1.89828297 C10.2178225,1.88454676 10.2260336,1.8701199 10.2428393,1.85492566 C10.2591847,1.84011511 10.2802878,1.81832134 10.3052278,1.78939089 C10.3301679,1.76053717 10.3544173,1.72070983 10.3785899,1.66921823 C10.4363741,1.54705036 10.4648441,1.35543405 10.4648441,1.094753 C10.4648441,0.833995204 10.4448921,0.646215827 10.4047578,0.530340528 C10.3645468,0.414848921 10.2935635,0.3078753 10.1905036,0.209880096 C10.1905036,0.155242206 10.2326331,0.115491607 10.3177362,0.0897074341 C10.3488921,0.0807290168 10.395012,0.0760479616 10.4558657,0.0760479616 C10.515952,0.0760479616 10.5815635,0.0979184652 10.6518561,0.141966427 C10.7220719,0.185630695 10.7727962,0.228604317 10.8048729,0.270810552 L10.8524508,0.336729017 C10.9945707,0.162992806 11.154494,0.0760479616 11.3329113,0.0760479616 C11.4277602,0.0760479616 11.5269065,0.0947721823 11.6284317,0.131453237 C11.7307242,0.168517986 11.8111463,0.222772182 11.8700048,0.293832134 C11.9788969,0.148642686 12.1073573,0.0760479616 12.2553094,0.0760479616 C12.3051894,0.0760479616 12.3450935,0.0846426859 12.375482,0.102215827 C12.4058705,0.119405276 12.4253621,0.145496403 12.4344173,0.180258993 C12.3591367,0.237659472 12.3056499,0.302810552 12.274801,0.375405276 C12.2435683,0.447616307 12.2279904,0.537016787 12.2279904,0.64276259 C12.2279904,0.830158273 12.2893046,0.969899281 12.4118561,1.06198561 C12.406024,1.08615827 12.3888345,1.1068777 12.3607482,1.12445084 C12.3326619,1.14164029 12.2943693,1.15061871 12.2451799,1.15061871 C12.1959904,1.15061871 12.1468777,1.13972182 12.0968441,1.11861871 C12.0468873,1.09759233 12.0105899,1.07648921 11.987952,1.05546283 L11.9540336,1.02146763 C11.8677794,1.10733813 11.7690168,1.15069544 11.6569784,1.15069544 C11.6133141,1.15069544 11.5777842,1.14286811 11.5503885,1.12767386 C11.5231463,1.11286331 11.5051127,1.09099281 11.496211,1.06213909 C11.6034916,0.965294964 11.6569784,0.852182254 11.6569784,0.72218705 C11.6569784,0.578532374 11.575482,0.506705036 11.4123357,0.506705036 C11.2491894,0.506705036 11.1676163,0.559040767 11.1676163,0.663251799 C11.1676163,0.669467626 11.1676163,0.676143885 11.1676163,0.68358753 L11.2648441,1.69684412 C11.4311367,1.69684412 11.562283,1.68748201 11.658283,1.66829736 C11.754283,1.64957314 11.8386187,1.61527098 11.9112134,1.56531415 C11.926024,1.56531415 11.9400671,1.57621103 11.9529592,1.59808153 C11.9656211,1.61941487 11.9718369,1.64635012 11.9718369,1.67796643 Z" id="Path"></path>
                            </g>
                        </g>
                    </g>
                </g>
            </g>
        </g>
    </g>
</svg>