<?xml version="1.0" encoding="UTF-8"?>
<svg width="32px" height="30px" viewBox="0 0 32 30" version="1.1" xmlns="http://www.w3.org/2000/svg" xmlns:xlink="http://www.w3.org/1999/xlink">
    <!-- Generator: Sketch 52.6 (67491) - http://www.bohemiancoding.com/sketch -->
    <title>Group 3</title>
    <desc>Created with Sketch.</desc>
    <g id="Ver-1.4" stroke="none" stroke-width="1" fill="none" fill-rule="evenodd">
        <g id="Hamburger" transform="translate(-24.000000, -162.000000)">
            <g id="Hamburger_Menu" transform="translate(0.000000, 48.000000)">
                <g id="VOC" transform="translate(0.000000, 101.000000)">
                    <g id="Group-3" transform="translate(24.000000, 13.000000)">
                        <path d="M26.6666667,-1.77635684e-14 L5.33333333,-1.77635684e-14 C2.4,-1.77635684e-14 0,2.4 0,5.33333333 L0,18.6666667 C0,21.6 2.4,24 5.33333333,24 L5.33333333,28 C5.33333333,29.2 6.8,29.7333333 7.6,28.9333333 L12.5333333,24 L26.6666667,24 C29.6,24 32,21.6 32,18.6666667 L32,5.33333333 C32,2.4 29.6,-1.77635684e-14 26.6666667,-1.77635684e-14 Z" id="message" fill="#F4F4F4"></path>
                        <g id="Group-2" transform="translate(8.000000, 3.333333)" fill="#333F73">
                            <circle id="Oval" cx="8" cy="4" r="4"></circle>
                            <path d="M8,10 C5.33,10 0,11.34 0,14 L0,16 L16,16 L16,14 C16,11.34 10.67,10 8,10 Z" id="Path"></path>
                        </g>
                    </g>
                </g>
            </g>
        </g>
    </g>
</svg>