<?xml version="1.0" encoding="iso-8859-1"?>
<!-- Generator: Adobe Illustrator 17.1.0, SVG Export Plug-In . SVG Version: 6.00 Build 0)  -->
<!DOCTYPE svg PUBLIC "-//W3C//DTD SVG 1.1//EN" "http://www.w3.org/Graphics/SVG/1.1/DTD/svg11.dtd">
<svg version="1.1" id="Capa_1" xmlns="http://www.w3.org/2000/svg" xmlns:xlink="http://www.w3.org/1999/xlink" x="0px" y="0px"
	 viewBox="0 0 387.84 387.84" style="enable-background:new 0 0 387.84 387.84;" xml:space="preserve">
<g>
	<path d="M387.761,370.801L374.01,238.89c-0.688-6.602-1.935-17.322-2.778-23.897L349.087,42.404
		c-0.964-7.518-7.289-15.461-14.399-18.084L272.106,1.229c-1.611-0.595-3.298-0.896-5.014-0.896c-6.062,0-11.579,3.779-13.729,9.404
		L193.92,165.251L134.476,9.737c-2.149-5.625-7.667-9.404-13.729-9.404c-1.716,0-3.402,0.302-5.014,0.896l-62.581,23.09
		c-7.11,2.624-13.436,10.567-14.399,18.084l-22.145,172.59c-0.844,6.574-2.09,17.294-2.778,23.896L0.079,370.801
		c-0.403,3.867,0.745,7.587,3.235,10.476c2.489,2.889,6,4.574,9.885,4.745l21.653,0.955c7.919,0.352,15.237-5.67,16.502-13.408
		L73.289,239.46c1.072-6.552,2.564-17.265,3.327-23.881l10.531-91.412l19.856,97.09c0.347,1.698,1.166,5.852,3.916,5.852
		c0,0,62.5,0,83.333,0c2.083,0,1.696-2.669,1.696-2.669l-1.409-5.208c-1.321-4.887,0.373-8.087,1.501-9.56
		c1.757-2.296,4.479-3.612,7.469-3.612c1.769,0,3.586,0.454,5.401,1.349l23.385,11.532c0,0,0.733,0.538,1.935-0.043
		c5.847-2.825,23.296-11.489,23.296-11.489c1.815-0.895,3.633-1.349,5.402-1.349c2.989,0,5.711,1.317,7.469,3.613
		c1.128,1.473,2.822,4.673,1.501,9.559l-1.625,6.009c0,0-0.292,1.868,1.583,1.868c1.391,0,5.563,0,5.563,0
		c2.875,0,3.069-4.154,3.416-5.852l19.856-97.09l10.531,91.412c0.763,6.616,2.255,17.33,3.327,23.881l21.935,134.108
		c1.265,7.74,8.586,13.776,16.502,13.408l21.653-0.955c3.885-0.171,7.396-1.856,9.885-4.745
		C387.016,378.388,388.164,374.668,387.761,370.801z"/>
	<path d="M321.636,350.555c-1.024-6.689-3.851-17.265-6.3-23.575l-32.569-83.897l-0.112-0.288c-0.085-0.219-0.527-0.686-1.569-0.686
		c-2.49,0-7.138,0-9.958,0c-1.625,0-0.916,1.145-0.916,1.145l0.676,1.65c1.51,3.681,1.266,7.446-0.669,10.331
		c-1.838,2.74-4.914,4.311-8.44,4.311c0,0,0,0-0.001,0c-1.028,0-2.096-0.135-3.174-0.4l-23.107-5.698
		c-2.515-0.797-3.771-0.194-4.556,0l-23.106,5.698c-1.078,0.266-2.146,0.4-3.175,0.4c-3.525,0-6.603-1.571-8.44-4.311
		c-1.935-2.884-2.179-6.649-0.671-10.33l0.214-0.521c0,0,0.824-2.275-2.176-2.275c-22.039,0-85.667,0-85.667,0
		c-2.063,0-3.206,1.9-3.206,1.9l-32.211,82.972c-2.448,6.31-5.274,16.885-6.299,23.574l-3.401,22.212
		c-0.595,3.887,0.405,7.575,2.817,10.384c2.411,2.809,5.905,4.356,9.838,4.356h115.795c0.912,0,1.801-0.095,2.667-0.257
		c0.866,0.162,1.755,0.257,2.667,0.257h115.795c3.933,0,7.427-1.547,9.838-4.356c2.412-2.809,3.412-6.497,2.817-10.384
		L321.636,350.555z"/>
	<path d="M243.432,234.609c0-5.606-4.561-10.167-10.166-10.167c-5.606,0-10.167,4.561-10.167,10.167s4.561,10.167,10.167,10.167
		C238.871,244.776,243.432,240.215,243.432,234.609z"/>
</g>
<g>
</g>
<g>
</g>
<g>
</g>
<g>
</g>
<g>
</g>
<g>
</g>
<g>
</g>
<g>
</g>
<g>
</g>
<g>
</g>
<g>
</g>
<g>
</g>
<g>
</g>
<g>
</g>
<g>
</g>
</svg>
