<?xml version="1.0" encoding="iso-8859-1"?>
<!-- Generator: Adobe Illustrator 17.1.0, SVG Export Plug-In . SVG Version: 6.00 Build 0)  -->
<!DOCTYPE svg PUBLIC "-//W3C//DTD SVG 1.1//EN" "http://www.w3.org/Graphics/SVG/1.1/DTD/svg11.dtd">
<svg version="1.1" id="Capa_1" xmlns="http://www.w3.org/2000/svg" xmlns:xlink="http://www.w3.org/1999/xlink" x="0px" y="0px"
	 viewBox="0 0 451.764 451.764" style="enable-background:new 0 0 451.764 451.764;" xml:space="preserve">
<path d="M448.95,181.276l-84.345-119.47l-0.144-0.185c-2.987-3.486-5.566-5.109-8.117-5.109c-2.686,0-4.291,1.794-5.256,2.873
	c-20.404,22.798-67.211,36.409-125.207,36.409c-58.396,0-105.333-13.757-125.556-36.801c-0.099-0.113-0.202-0.236-0.31-0.364
	c-0.948-1.131-2.535-3.023-5.099-3.023c-2.094,0-4.103,1.279-6.14,3.912L2.814,181.276c-4.518,6.399-3.484,15.9,2.303,21.179
	l36.632,33.415c2.549,2.325,5.791,3.604,9.131,3.604c4.179,0,8.073-1.964,10.687-5.388l44.169-57.886
	c0.911-1.193,1.619-1.818,2.032-2.112c0.139,0.496,0.274,1.392,0.219,2.813L79.1,381.323l-0.021,0.235
	c-0.178,3.877,1.182,7.538,3.827,10.308s6.24,4.294,10.121,4.294h265.711c3.881,0,7.476-1.525,10.121-4.294s4.005-6.43,3.827-10.308
	l-0.005-0.118l-28.902-204.539c-0.056-1.41,0.078-2.304,0.216-2.802c0.438,0.301,1.138,0.924,2.035,2.1l44.169,57.886
	c2.612,3.424,6.508,5.388,10.688,5.388c0,0,0,0,0.001,0c3.339,0,6.581-1.28,9.129-3.604l36.632-33.415
	C452.435,197.176,453.468,187.675,448.95,181.276z"/>
<g>
</g>
<g>
</g>
<g>
</g>
<g>
</g>
<g>
</g>
<g>
</g>
<g>
</g>
<g>
</g>
<g>
</g>
<g>
</g>
<g>
</g>
<g>
</g>
<g>
</g>
<g>
</g>
<g>
</g>
</svg>
