<?xml version="1.0" encoding="iso-8859-1"?>
<!-- Generator: Adobe Illustrator 19.0.0, SVG Export Plug-In . SVG Version: 6.00 Build 0)  -->
<svg version="1.1" id="Layer_1" xmlns="http://www.w3.org/2000/svg" xmlns:xlink="http://www.w3.org/1999/xlink" x="0px" y="0px"
	 viewBox="0 0 512.003 512.003" style="enable-background:new 0 0 512.003 512.003;" xml:space="preserve">
<g transform="translate(0 -1)">
	<g>
		<g>
			<rect x="247.479" y="1" width="17.07" height="34.13"/>
			<path d="M213.201,52.203h-46.217c-2.628,10.667-4.207,24.977-4.693,42.667h8.388C202.85,94.869,212.032,86.592,213.201,52.203z"
				/>
			<path d="M341.351,94.869h8.311c-0.538-17.621-2.219-31.949-5.043-42.667h-45.79C299.998,86.592,309.18,94.869,341.351,94.869z"/>
			<path d="M230.417,1.003H187.75c-3.917,0-7.33,2.662-8.277,6.468l-6.921,27.665h57.865V1.003z"/>
			<path d="M341.351,111.936c-46.882,0-58.283-20.924-59.588-59.733h-51.49c-1.306,38.81-12.706,59.733-59.588,59.733h-8.516
				c0.239,30.029,2.944,67.473,8.175,111.241c0.085,2.381,8.525,239.266,8.525,281.293c0,4.719,3.823,8.533,8.533,8.533h42.667
				c4.719,0,8.533-3.814,8.533-8.533c0-2.295,0.102-230.033,8.491-271.966c3.021-15.13,5.99-29.969,8.576-43.998
				c2.62,14.165,5.623,29.193,8.704,44.57c8.269,41.361,8.363,269.099,8.363,271.394c0,4.719,3.823,8.533,8.533,8.533h42.667
				c4.719,0,8.533-3.814,8.533-8.533c0-42.027,8.448-278.912,8.465-280.508c5.709-44.117,8.653-81.818,8.9-112.026H341.351z"/>
			<path d="M332.561,7.471c-0.947-3.806-4.361-6.468-8.277-6.468h-42.667v34.133h57.865L332.561,7.471z"/>
		</g>
	</g>
</g>
<g>
</g>
<g>
</g>
<g>
</g>
<g>
</g>
<g>
</g>
<g>
</g>
<g>
</g>
<g>
</g>
<g>
</g>
<g>
</g>
<g>
</g>
<g>
</g>
<g>
</g>
<g>
</g>
<g>
</g>
</svg>
